<svg xmlns="http://www.w3.org/2000/svg" xml:space="preserve" id="Layer_1" x="0" y="0" version="1.1" viewBox="0 0 103 32"><style>.st0{fill:#fff}</style><path d="M5.5 19.9.1 23l5.4 3.1v-6.2z" class="st0"/><path d="m5.6 10.9-5.4 3 8 4.7v9l5.4-3.2v-9.1l-8-4.4z" class="st0"/><path d="M16.1 14 5 7.8l6.3-3.5 11.2 6.3v12.3l-6.4 3.6V14zM28 22.2V4.8h3.4v17.4H28zm2.4-6.5V13h4c.5 0 1-.1 1.4-.3.4-.2.8-.5 1-.9.2-.4.4-.9.4-1.5s-.1-1.1-.4-1.5c-.2-.4-.6-.7-1-.9-.4-.2-.9-.3-1.4-.3h-4V4.8h4.4c1.1 0 2.1.2 3 .7.9.4 1.6 1.1 2.1 1.9.5.8.8 1.8.8 2.9s-.3 2.1-.8 2.9c-.5.8-1.2 1.5-2.1 1.9-.9.4-1.9.7-3 .7h-4.4zm12.5 11.5v-17h3.3v3.2l-.5 2.9.5 2.9v8h-3.3zm6.6-4.7c-.9 0-1.6-.2-2.3-.5s-1.2-.8-1.7-1.5c-.4-.6-.6-1.3-.7-2.1v-4.2c0-.8.3-1.5.7-2.1.4-.6 1-1.1 1.7-1.5.7-.4 1.5-.5 2.3-.5 1.1 0 2.1.3 3 .8.9.5 1.6 1.3 2.1 2.2.5.9.8 2 .8 3.2 0 1.2-.3 2.2-.8 3.2-.5.9-1.2 1.7-2.1 2.2-.9.5-1.8.8-3 .8zm-.5-3c.6 0 1.1-.1 1.6-.4.5-.3.8-.7 1.1-1.1.3-.5.4-1.1.4-1.7 0-.6-.1-1.2-.4-1.7s-.6-.9-1.1-1.1c-.5-.3-1-.4-1.6-.4-.6 0-1.1.1-1.6.4-.5.3-.8.7-1.1 1.1-.3.5-.4 1-.4 1.7 0 .6.1 1.2.4 1.7.3.5.6.9 1.1 1.1.5.2 1 .4 1.6.4zm14.1 3c-1.2 0-2.3-.3-3.3-.8s-1.7-1.3-2.3-2.2c-.6-.9-.8-2-.8-3.2 0-1.2.3-2.3.8-3.2.6-.9 1.3-1.7 2.3-2.2 1-.6 2.1-.8 3.3-.8.9 0 1.8.2 2.6.5s1.5.8 2.1 1.5l-2.1 2.1c-.3-.3-.7-.6-1.1-.8-.4-.2-.9-.3-1.5-.3s-1.1.1-1.6.4c-.5.3-.8.6-1.1 1.1-.3.5-.4 1-.4 1.7 0 .6.1 1.2.4 1.7.3.5.6.9 1.1 1.1.5.3 1 .4 1.6.4.5 0 1-.1 1.5-.3.4-.2.8-.5 1.1-.8l2.1 2.1c-.6.7-1.3 1.2-2.1 1.5-.7.3-1.6.5-2.6.5zm12 0c-1.2 0-2.3-.3-3.3-.8s-1.7-1.3-2.3-2.2c-.6-.9-.8-2-.8-3.2 0-1.2.3-2.3.8-3.2.6-.9 1.3-1.7 2.3-2.2 1-.6 2.1-.8 3.3-.8.9 0 1.8.2 2.6.5s1.5.8 2.1 1.5l-2.1 2.1c-.3-.3-.7-.6-1.1-.8-.4-.2-.9-.3-1.5-.3s-1.1.1-1.6.4c-.5.3-.8.6-1.1 1.1-.3.5-.4 1-.4 1.7 0 .6.1 1.2.4 1.7.3.5.6.9 1.1 1.1.5.3 1 .4 1.6.4.5 0 1-.1 1.5-.3.4-.2.8-.5 1.1-.8l2.1 2.1c-.6.7-1.3 1.2-2.1 1.5-.8.3-1.7.5-2.6.5zm5.6-.3 7-17.4h2.8l7 17.4h-3.6L88.4 7.9h1.2l-5.5 14.3h-3.4zm3.7-3.2v-2.8h9.4V19h-9.4zm15.1 3.2V4.8h3.4v17.4h-3.4z" class="st0"/></svg>